<svg width="48" height="48" viewBox="0 0 48 48" fill="none" xmlns="http://www.w3.org/2000/svg">
<path d="M0 9.19112C0 4.11557 3.94713 0 8.81635 0H39.1837C44.0529 0 48 4.11521 48 9.19112V38.8085C48 43.8848 44.0529 48 39.1837 48H8.81635C3.94713 48 0 43.8848 0 38.8085V9.19148V9.19112Z" fill="url(#paint0_linear)"/>
<path fill-rule="evenodd" clip-rule="evenodd" d="M43.7159 5.93213C44.1944 6.21497 44.5428 6.67948 44.6844 7.2235C44.8261 7.76752 44.7495 8.34648 44.4714 8.83304L29.7883 34.5162L24.7897 28.0452L18.9309 37.9717L13.8213 31.3585L7.80218 40.0552C7.6456 40.2859 7.44562 40.4828 7.21378 40.6345C6.98195 40.7862 6.72286 40.8897 6.45148 40.939C6.18009 40.9883 5.90179 40.9824 5.63265 40.9217C5.36351 40.861 5.10887 40.7467 4.88342 40.5854C4.65797 40.424 4.4662 40.2189 4.31916 39.9817C4.17213 39.7446 4.07276 39.4802 4.02678 39.2038C3.98081 38.9274 3.98914 38.6445 4.05131 38.3714C4.11347 38.0983 4.22823 37.8404 4.38896 37.6127L13.6377 24.2498L18.4697 30.505L24.3284 20.5782L29.271 26.9756L40.8627 6.69997C41.0005 6.45905 41.1835 6.24808 41.4015 6.07911C41.6194 5.91013 41.868 5.78646 42.1329 5.71516C42.3979 5.64386 42.674 5.62632 42.9456 5.66355C43.2172 5.70078 43.479 5.79204 43.7159 5.93213V5.93213Z" fill="white"/>
<defs>
<linearGradient id="paint0_linear" x1="24" y1="0" x2="24" y2="48" gradientUnits="userSpaceOnUse">
<stop stop-color="#007DCD"/>
<stop offset="1" stop-color="#FF0000"/>
</linearGradient>
</defs>
</svg>
