<svg version="1.0" xmlns="http://www.w3.org/2000/svg"
 width="192.000000pt" height="192.000000pt" viewBox="0 0 192.000000 192.000000"
 preserveAspectRatio="xMidYMid meet">

<g transform="translate(0.000000,192.000000) scale(0.100000,-0.100000)"
fill="#000000" stroke="none">
<path d="M0 960 l0 -960 960 0 960 0 0 960 0 960 -960 0 -960 0 0 -960z m1414
398 c13 -19 16 -58 16 -230 l0 -208 -27 -29 c-18 -19 -90 -57 -198 -106 -93
-42 -175 -83 -180 -90 -6 -7 -19 -47 -29 -89 -27 -116 -26 -116 -262 -116
-181 0 -194 1 -204 19 -6 13 -10 164 -10 423 0 349 2 407 16 426 l15 22 424 0
424 0 15 -22z"/>
</g>
</svg>
