<?xml version="1.0" encoding="utf-8"?>
<!-- Generator: Adobe Illustrator 23.0.5, SVG Export Plug-In . SVG Version: 6.00 Build 0)  -->
<svg  width="358" height="48" version="1.1" id="Слой_1" xmlns="http://www.w3.org/2000/svg" xmlns:xlink="http://www.w3.org/1999/xlink" x="0px" y="0px"
	 viewBox="0 0 358 48" style="enable-background:new 0 0 358 48;" xml:space="preserve">
<style type="text/css">
@keyframes popup {
  0% {transform: translateX(0px);}
100% {transform: translateX(300px);}
}

	.st0{fill:#172B4D;}
	
	
	.st1{fill:url(#SVGID_1_);}
	
	.st2{fill-rule:evenodd;clip-rule:evenodd;fill:#FFFFFF;}
	.st3{opacity:0.8;fill:#FFFFFF;
	animation-delay: 10s;
	}
.st4{fill:#876586;}
</style>
<defs>
    <filter id="f1" x="0" y="0">
      <feGaussianBlur in="SourceGraphic" stdDeviation="3" />
    </filter>
	<filter id="f2" x="0" y="0">
      <feGaussianBlur in="SourceGraphic" stdDeviation="0.5" />
    </filter>
  </defs>
<path class="st0" d="M72.4,31l5.8-14h2.2l5.8,14h-2.3l-1.5-3.7h-6.2L74.7,31H72.4z M79.3,19.5L77,25.3h4.6L79.3,19.5z M89.9,27v4h-2
	v-9.6h2v3.8h4.7v-3.8h2V31h-2v-4H89.9z M107.1,31h-2v-1c0,0-0.1,0.1-0.1,0.1c-0.1,0.1-0.2,0.2-0.4,0.3c-0.2,0.1-0.4,0.3-0.6,0.4
	c-0.2,0.1-0.5,0.2-0.8,0.3c-0.3,0.1-0.7,0.1-1,0.1c-1,0-1.8-0.3-2.4-0.8c-0.6-0.6-1-1.2-1-1.9c0-0.8,0.2-1.4,0.7-2
	c0.5-0.5,1.2-0.9,2.1-1l3.5-0.6c0-0.5-0.2-0.9-0.6-1.3c-0.4-0.3-0.9-0.5-1.4-0.5c-0.5,0-1,0.1-1.4,0.3c-0.4,0.2-0.7,0.4-0.8,0.6
	l-0.3,0.3L99.3,23c0-0.1,0.1-0.1,0.2-0.2c0.1-0.1,0.2-0.2,0.5-0.4c0.2-0.2,0.5-0.4,0.8-0.6c0.3-0.2,0.6-0.3,1.1-0.4
	c0.4-0.1,0.9-0.2,1.4-0.2c1.2,0,2.1,0.3,2.9,1c0.7,0.7,1.1,1.5,1.1,2.6V31z M102.5,29.4c0.8,0,1.4-0.2,1.9-0.7
	c0.5-0.5,0.7-1.2,0.7-2.1v-0.2l-3.1,0.5c-0.4,0.1-0.6,0.2-0.9,0.4c-0.2,0.2-0.3,0.5-0.3,0.9c0,0.3,0.2,0.6,0.5,0.8
	C101.6,29.3,102,29.4,102.5,29.4z M111,21.4h7.4V31h-2v-7.8H113v1c0,1.8-0.1,3.3-0.4,4.3c-0.3,1.1-0.7,1.8-1.1,2.1
	c-0.4,0.4-1,0.5-1.7,0.5c-0.2,0-0.4,0-0.6,0c-0.2,0-0.3-0.1-0.5-0.1l-0.2,0v-1.9c0.3,0.1,0.5,0.1,0.7,0.1c0.4,0,0.7-0.1,1-0.3
	c0.2-0.2,0.4-0.7,0.6-1.5c0.2-0.8,0.2-1.8,0.2-3.2V21.4z M128.2,21.4h1.8V31h-2v-6.3l-5,6.3h-1.8v-9.6h2v6.3L128.2,21.4z
	 M131.8,23.2v-1.8h8.6v1.8h-3.3V31h-2v-7.8H131.8z M149.2,21.4h1.8V31h-2v-6.3l-5,6.3h-1.8v-9.6h2v6.3L149.2,21.4z M159.8,31v-3.6
	c-0.7,0.5-1.5,0.7-2.4,0.7c-1.2,0-2.1-0.3-2.8-1c-0.7-0.7-1-1.7-1-2.9v-2.8h2v2.8c0,0.6,0.2,1.1,0.6,1.5c0.4,0.4,0.9,0.6,1.4,0.6
	c0.4,0,0.8-0.1,1.2-0.2c0.4-0.1,0.6-0.3,0.8-0.4l0.2-0.2v-4.1h2V31H159.8z M173.5,26.9H166c0.1,0.7,0.4,1.3,1,1.8
	c0.6,0.5,1.2,0.7,2,0.7c0.6,0,1.1-0.1,1.6-0.4c0.5-0.3,0.8-0.5,1-0.7l0.3-0.4l1.3,1.3c0,0.1-0.1,0.1-0.2,0.2
	c-0.1,0.1-0.3,0.3-0.5,0.5c-0.3,0.2-0.5,0.4-0.8,0.6c-0.3,0.2-0.7,0.3-1.2,0.5c-0.5,0.1-1,0.2-1.5,0.2c-1.4,0-2.5-0.5-3.5-1.5
	c-1-1-1.5-2.2-1.5-3.6c0-1.3,0.5-2.5,1.4-3.5c1-1,2.1-1.4,3.5-1.4c1.3,0,2.5,0.4,3.4,1.3c0.9,0.9,1.3,2,1.3,3.4L173.5,26.9z
	 M168.9,22.9c-0.7,0-1.3,0.2-1.8,0.6c-0.5,0.4-0.8,1-1,1.7h5.6c-0.1-0.7-0.4-1.2-0.9-1.7C170.3,23.1,169.7,22.9,168.9,22.9z
	 M176.7,29.7c-1-1-1.5-2.2-1.5-3.5c0-1.3,0.5-2.5,1.5-3.5c1-1,2.2-1.5,3.5-1.5c0.7,0,1.4,0.2,2.1,0.5c0.6,0.3,1.1,0.6,1.4,1l0.4,0.5
	l-1.3,1.3c-0.1-0.1-0.2-0.2-0.3-0.4c-0.1-0.2-0.4-0.4-0.9-0.6c-0.4-0.3-0.9-0.4-1.4-0.4c-0.8,0-1.5,0.3-2.1,0.9
	c-0.6,0.6-0.9,1.4-0.9,2.3c0,0.9,0.3,1.6,0.9,2.3c0.6,0.6,1.3,0.9,2.1,0.9c0.5,0,1-0.1,1.4-0.4c0.5-0.3,0.8-0.5,1-0.7l0.3-0.4
	l1.3,1.3c0,0.1-0.1,0.1-0.2,0.2c-0.1,0.1-0.2,0.3-0.5,0.5c-0.3,0.2-0.5,0.4-0.8,0.6c-0.3,0.2-0.7,0.3-1.1,0.5
	c-0.5,0.1-0.9,0.2-1.4,0.2C178.9,31.2,177.7,30.7,176.7,29.7z M194.7,21.4l-3.7,4l4,5.6h-2.2l-3.1-4.3l-1.5,1.6V31h-2v-9.6h2v4.3
	l4.1-4.3H194.7z M203.6,21.4h1.8V31h-2v-6.3l-5,6.3h-1.8v-9.6h2v6.3L203.6,21.4z M215.2,21.4h1.8V31h-2v-6.3l-5,6.3h-1.8v-9.6h2v6.3
	L215.2,21.4z M211.6,18c0.3,0.3,0.6,0.4,1,0.4c0.4,0,0.7-0.1,1-0.4c0.3-0.3,0.4-0.6,0.4-1h1.5c0,0.8-0.3,1.5-0.8,2
	c-0.5,0.5-1.2,0.8-2.1,0.8c-0.8,0-1.5-0.3-2.1-0.8c-0.5-0.5-0.8-1.2-0.8-2h1.5C211.2,17.4,211.3,17.7,211.6,18z M223.8,31v-9.6h2
	v7.8h4.5v-7.8h2v7.8h1.4v4.2h-2V31H223.8z M244.6,26.9h-7.5c0.1,0.7,0.4,1.3,1,1.8c0.6,0.5,1.2,0.7,2,0.7c0.6,0,1.1-0.1,1.6-0.4
	c0.5-0.3,0.8-0.5,1-0.7l0.3-0.4l1.3,1.3c0,0.1-0.1,0.1-0.2,0.2c-0.1,0.1-0.3,0.3-0.5,0.5c-0.3,0.2-0.6,0.4-0.9,0.6
	c-0.3,0.2-0.7,0.3-1.2,0.5c-0.5,0.1-1,0.2-1.5,0.2c-1.4,0-2.5-0.5-3.5-1.5c-1-1-1.5-2.2-1.5-3.6c0-1.3,0.5-2.5,1.4-3.5
	c1-1,2.1-1.4,3.5-1.4c1.3,0,2.5,0.4,3.4,1.3c0.9,0.9,1.3,2,1.3,3.4L244.6,26.9z M240,22.9c-0.7,0-1.3,0.2-1.8,0.6
	c-0.5,0.4-0.8,1-1,1.7h5.6c-0.1-0.7-0.4-1.2-0.9-1.7C241.3,23.1,240.7,22.9,240,22.9z M248.9,27v4h-2v-9.6h2v3.8h4.7v-3.8h2V31h-2
	v-4H248.9z M257.4,23.2v-1.8h8.6v1.8h-3.3V31h-2v-7.8H257.4z M272.9,31.2c-0.4,0-0.7,0-1-0.1c-0.3-0.1-0.6-0.2-0.9-0.3
	c-0.2-0.1-0.5-0.3-0.6-0.4c-0.2-0.1-0.3-0.2-0.4-0.3l-0.1-0.1v5.3h-2V21.4h2v1.1c0.1-0.1,0.2-0.2,0.4-0.4c0.2-0.1,0.5-0.3,1.1-0.6
	c0.5-0.2,1.1-0.4,1.7-0.4c1.3,0,2.4,0.5,3.3,1.5c0.9,1,1.4,2.1,1.4,3.5c0,1.4-0.5,2.6-1.4,3.5C275.3,30.7,274.2,31.2,272.9,31.2z
	 M274.7,23.9c-0.6-0.6-1.3-0.9-2-0.9c-0.8,0-1.4,0.3-2,0.9s-0.9,1.4-0.9,2.3c0,0.9,0.3,1.6,0.9,2.3s1.3,0.9,2,0.9
	c0.8,0,1.4-0.3,2-0.9s0.9-1.4,0.9-2.3C275.6,25.3,275.3,24.6,274.7,23.9z M291.8,23.8l5.4-6.8h1.9v14h-2.2V20.8l-5.1,6.4l-5.1-6.4
	V31h-2.2V17h1.9L291.8,23.8z M308.9,28.5c0.6-0.6,0.9-1.4,0.9-2.3c0-0.9-0.3-1.7-0.9-2.3c-0.6-0.6-1.3-0.9-2.1-0.9s-1.5,0.3-2.1,0.9
	c-0.6,0.6-0.9,1.4-0.9,2.3c0,0.9,0.3,1.6,0.9,2.3c0.6,0.6,1.3,0.9,2.1,0.9S308.3,29.1,308.9,28.5z M303.3,29.7c-1-1-1.5-2.2-1.5-3.5
	c0-1.3,0.5-2.5,1.5-3.5c1-1,2.2-1.5,3.5-1.5c1.3,0,2.5,0.5,3.5,1.5c1,1,1.5,2.2,1.5,3.5c0,1.3-0.5,2.5-1.5,3.5c-1,1-2.2,1.5-3.5,1.5
	C305.4,31.2,304.3,30.7,303.3,29.7z M314.9,29.7c-1-1-1.5-2.2-1.5-3.5c0-1.3,0.5-2.5,1.5-3.5c1-1,2.2-1.5,3.5-1.5
	c0.7,0,1.4,0.2,2.1,0.5c0.6,0.3,1.1,0.6,1.4,1l0.4,0.5l-1.3,1.3c-0.1-0.1-0.2-0.2-0.3-0.4c-0.1-0.2-0.4-0.4-0.9-0.6
	c-0.4-0.3-0.9-0.4-1.4-0.4c-0.8,0-1.5,0.3-2.1,0.9c-0.6,0.6-0.9,1.4-0.9,2.3c0,0.9,0.3,1.6,0.9,2.3c0.6,0.6,1.3,0.9,2.1,0.9
	c0.5,0,1-0.1,1.4-0.4c0.4-0.3,0.8-0.5,1-0.7l0.3-0.4l1.3,1.3c0,0.1-0.1,0.1-0.2,0.2c-0.1,0.1-0.2,0.3-0.5,0.5
	c-0.3,0.2-0.5,0.4-0.8,0.6c-0.3,0.2-0.7,0.3-1.1,0.5c-0.5,0.1-0.9,0.2-1.4,0.2C317,31.2,315.9,30.7,314.9,29.7z M332.9,21.4l-3.7,4
	l4,5.6H331l-3.1-4.3l-1.5,1.6V31h-2v-9.6h2v4.3l4.1-4.3H332.9z M334.8,21.4h4.6c0.9,0,1.6,0.2,2.2,0.7c0.5,0.5,0.8,1.1,0.8,1.8
	c0,0.4-0.1,0.8-0.3,1.1c-0.2,0.3-0.4,0.6-0.5,0.7l-0.3,0.2c0,0,0.1,0,0.2,0.1c0.1,0,0.2,0.1,0.4,0.3c0.2,0.1,0.4,0.3,0.5,0.4
	c0.1,0.2,0.3,0.4,0.4,0.6c0.1,0.3,0.2,0.6,0.2,0.9c0,0.8-0.3,1.5-0.9,2c-0.6,0.5-1.4,0.8-2.4,0.8h-4.8V21.4z M339.6,26.7h-2.8v2.6
	h2.8c0.4,0,0.7-0.1,0.9-0.4c0.2-0.2,0.4-0.6,0.4-0.9c0-0.4-0.1-0.7-0.4-0.9S340,26.7,339.6,26.7z M340.1,24.8
	c0.2-0.2,0.3-0.4,0.3-0.7c0-0.3-0.1-0.6-0.3-0.7c-0.2-0.2-0.4-0.3-0.7-0.3h-2.6v2h2.6C339.7,25.1,339.9,25,340.1,24.8z M347.1,29.3
	h2.1c0.5,0,0.8-0.2,1.1-0.5s0.5-0.7,0.5-1.1s-0.2-0.8-0.5-1.1c-0.3-0.3-0.7-0.5-1.1-0.5h-2.1V29.3z M351.8,25.3c0.7,0.6,1,1.4,1,2.4
	c0,1-0.3,1.7-1,2.4c-0.7,0.6-1.5,0.9-2.6,0.9h-4.1v-9.6h2v3h2.1C350.2,24.4,351.1,24.7,351.8,25.3z M356.2,21.4V31h-2v-9.6H356.2z"
	/>
<linearGradient id="SVGID_1_" gradientUnits="userSpaceOnUse" x1="24" y1="50" x2="24" y2="2" gradientTransform="matrix(1 0 0 -1 0 50)">
	<stop  offset="0" style="stop-color:#007DCD"/>
	<stop  offset="1" style="stop-color:#FF0000"/>
</linearGradient>
<path class="st1" d="M0,9.2C0,4.1,3.9,0,8.8,0h30.4C44.1,0,48,4.1,48,9.2v29.6c0,5.1-3.9,9.2-8.8,9.2H8.8C3.9,48,0,43.9,0,38.8V9.2
	L0,9.2z"/>
<path class="st2" d="M43.7,5.9c0.5,0.3,0.8,0.7,1,1.3c0.1,0.5,0.1,1.1-0.2,1.6L29.8,34.5l-5-6.5L18.9,38l-5.1-6.6l-6,8.7
	c-0.2,0.2-0.4,0.4-0.6,0.6c-0.2,0.2-0.5,0.3-0.8,0.3c-0.3,0-0.5,0-0.8,0c-0.3-0.1-0.5-0.2-0.7-0.3c-0.2-0.2-0.4-0.4-0.6-0.6
	c-0.1-0.2-0.2-0.5-0.3-0.8c0-0.3,0-0.6,0-0.8c0.1-0.3,0.2-0.5,0.3-0.8l9.2-13.4l4.8,6.3l5.9-9.9l4.9,6.4L40.9,6.7
	c0.1-0.2,0.3-0.5,0.5-0.6c0.2-0.2,0.5-0.3,0.7-0.4c0.3-0.1,0.5-0.1,0.8-0.1C43.2,5.7,43.5,5.8,43.7,5.9L43.7,5.9z"/>
	<g transform="translate">
	<rect x="69.9" y="-1" transform="matrix(0.9249 0.3802 -0.3802 0.9249 14.0465 -23.7631), rotate(40 115 70)" class="st3" width="6.5" height="29.5" filter="url(#f1)"/>
	<animateTransform id="light" attributeName="transform" values="10,-2;310,-2;310,-2;310,-2;310,-2;310,-2;"  type="translate" from="10" to="310" begin="2s" dur="4.8s" repeatCount="indefinite" additive="sum"></animateTransform>
</g>
   <g transform="translate(355.5 18.0)">
      <animateTransform id="op" attributeName="transform" type="scale" values="0;0;2.3;0;0;0" begin="2s" dur="4.78s" repeatCount="indefinite" additive="sum"></animateTransform>
      <circle r="1.0" fill="#5399f7" filter="url(#f2)"></circle>
   </g>
</svg>
