<svg width="40" height="40" viewBox="0 0 40 40" fill="none" xmlns="http://www.w3.org/2000/svg">
  <circle cx="20" cy="20" r="20" fill="#80CAFF" fill-opacity="0.2"/>
  <g clip-path="url(#clip0_108_14818)">
    <path fill-rule="evenodd" clip-rule="evenodd" d="M29.125 14.9688V28.625C29.125 29.3875 28.8221 30.1188 28.2829 30.6579C27.7438 31.1971 27.0125 31.5 26.25 31.5H24.8125V30.0625H26.25C26.6312 30.0625 26.9969 29.911 27.2665 29.6415C27.536 29.3719 27.6875 29.0062 27.6875 28.625V14.9688H24.8125C24.2406 14.9688 23.6922 14.7416 23.2878 14.3372C22.8834 13.9328 22.6562 13.3844 22.6562 12.8125V9.9375H14.75C14.3688 9.9375 14.0031 10.089 13.7335 10.3585C13.464 10.6281 13.3125 10.9938 13.3125 11.375V24.3125H11.875V11.375C11.875 10.6125 12.1779 9.88124 12.7171 9.34207C13.2562 8.8029 13.9875 8.5 14.75 8.5H22.6562L29.125 14.9688ZM18.3035 30.4794C18.2081 30.2769 18.1539 30.0575 18.1439 29.8339H19.2436C19.2634 29.9461 19.306 30.0529 19.3689 30.1479C19.4317 30.2428 19.5133 30.3239 19.6088 30.3859C19.7094 30.4564 19.8301 30.511 19.9681 30.5498C20.1047 30.5901 20.2585 30.6087 20.4267 30.6087C20.6624 30.6087 20.8608 30.5757 21.0204 30.5081C21.167 30.4533 21.2944 30.3569 21.3869 30.2307C21.4691 30.1074 21.5117 29.962 21.5091 29.8138C21.5132 29.7237 21.4953 29.634 21.457 29.5524C21.4187 29.4707 21.3611 29.3996 21.2892 29.3452C21.144 29.2302 20.9226 29.1382 20.6251 29.0677L19.7352 28.8622C19.4614 28.8042 19.1994 28.7002 18.9604 28.5546C18.7497 28.425 18.5759 28.2433 18.4559 28.027C18.3336 27.7951 18.2727 27.5358 18.2791 27.2738C18.2791 26.923 18.3696 26.6168 18.5522 26.3552C18.7347 26.095 18.9878 25.8923 19.3097 25.7486C19.6332 25.6048 20.0055 25.5344 20.4267 25.5344C20.8651 25.5344 21.2374 25.6062 21.5479 25.7529C21.8584 25.8995 22.0985 26.0964 22.2667 26.3422C22.4392 26.5866 22.5341 26.8583 22.5542 27.1559H21.4761C21.4515 27.0195 21.392 26.8917 21.3036 26.785C21.2086 26.6702 21.0866 26.5808 20.9485 26.5248C20.7802 26.4563 20.5997 26.423 20.4181 26.4271C20.1061 26.4271 19.8603 26.4989 19.6806 26.6456C19.5964 26.7104 19.5285 26.7942 19.4826 26.89C19.4366 26.9859 19.4139 27.0913 19.4161 27.1976C19.4161 27.3715 19.4851 27.5138 19.6217 27.6288C19.7939 27.7563 19.9931 27.8424 20.2039 27.8804L21.0951 28.0859C21.4071 28.1578 21.6787 28.2584 21.9087 28.3892C22.1306 28.5104 22.3165 28.6879 22.4478 28.9039C22.5772 29.1166 22.6419 29.3854 22.6419 29.7089C22.6419 30.0639 22.5513 30.3787 22.3716 30.6519C22.1803 30.9331 21.911 31.1525 21.5968 31.2829C21.2604 31.4339 20.8493 31.5101 20.3634 31.5101C19.9983 31.5101 19.6792 31.4669 19.4075 31.3807C19.1572 31.3056 18.9238 31.1825 18.7204 31.0184C18.5449 30.8702 18.4028 30.6865 18.3035 30.4794ZM14.0701 25.6523H12.7864L11.6019 27.7194H11.5501L10.3541 25.6523H9.01725L10.7811 28.5028L9 31.4008H10.2377L11.4639 29.3667H11.5142L12.7361 31.4008H14.0413L12.2387 28.5387L14.0701 25.6537V25.6523ZM17.9901 30.4319H15.5507V25.6523H14.4151V31.4023H17.9901V30.4319Z" fill="#80CAFF"/>
  </g>
  <defs>
    <clipPath id="clip0_108_14818">
      <rect width="23" height="23" fill="white" transform="translate(9 8.5)"/>
    </clipPath>
  </defs>
</svg>
